<svg xmlns="http://www.w3.org/2000/svg" viewBox="0 0 32 32"><rect width="32" height="32" rx="9" fill="#E8472B"/><path d="M10.5 6.5h7.7L23.5 12v12a1.6 1.6 0 0 1-1.6 1.6H10.5A1.6 1.6 0 0 1 8.9 24V8.1a1.6 1.6 0 0 1 1.6-1.6z" fill="#fff"/><path d="M18.2 6.5V10.4a1.6 1.6 0 0 0 1.6 1.6h3.7z" fill="#F7B9A9"/><path d="M11.4 16.8c1.5-1.9 2.6-1.9 3.5 0s2 1.9 3.5 0 2.4-1.9 3.2-.3" stroke="#E8472B" stroke-width="1.7" stroke-linecap="round" fill="none"/><path d="M11.4 21c1.5-1.9 2.6-1.9 3.5 0s2 1.9 3.5 0" stroke="#E8472B" stroke-width="1.7" stroke-linecap="round" fill="none" opacity=".45"/></svg>
